Coordinates
version=1
nRows=16
nColumns=42
inDegrees=yes

Units are S.I. units (second, meters, Newtons, ...)
If the header above contains a line with 'inDegrees', this indicates whether rotational values are in degrees (yes) or radians (no).

endheader
time	pelvis_tilt	pelvis_list	pelvis_rotation	pelvis_tx	pelvis_ty	pelvis_tz	hip_flexion_r	hip_adduction_r	hip_rotation_r	knee_angle_r	knee_adduction_r	knee_angle_r_beta	ankle_angle_r	subtalar_angle_r	mtp_angle_r	hip_flexion_l	hip_adduction_l	hip_rotation_l	knee_angle_l	knee_adduction_l	knee_angle_l_beta	ankle_angle_l	subtalar_angle_l	mtp_angle_l	lumbar_extension	lumbar_bending	lumbar_rotation	arm_flex_r	arm_add_r	arm_rot_r	elbow_flex_r	pro_sup_r	wrist_flex_r	wrist_dev_r	arm_flex_l	arm_add_l	arm_rot_l	elbow_flex_l	pro_sup_l	wrist_flex_l	wrist_dev_l
      6.00000000	      7.16000164	     -3.46081755	     -5.69685825	      0.51238421	      0.95156801	     -0.15107014	      6.87828707	    -10.29719780	    -15.72570157	     38.46156482	      4.96294082	      0.67128094	      5.94647444	      2.85369923	     -7.50310637	     -1.94622664	     -2.75627487	    -21.44341885	     22.88720719	      2.89300576	      0.39945712	     16.79797151	      2.00598596	     -7.50310637	    -18.00396847	      2.47895680	     -1.45267234	      7.33636044	    -10.16100351	      5.42968127	     40.56554856	     90.00000001	      0.00000000	      0.00000000	    -14.89267965	     -9.84102523	     -3.23576936	     50.10602239	     90.00000001	      0.00000000	      0.00000000
      6.01000000	      7.24120391	     -3.80244263	     -5.72418055	      0.51356618	      0.95195559	     -0.15080106	      6.81789312	     -9.77584051	    -15.45929533	     36.84297925	      5.39280297	      0.64303129	      6.25211055	      4.17051576	     -7.50306371	     -2.16192254	     -3.13493599	    -21.20729208	     22.93337553	      2.98235527	      0.40026291	     16.87800886	      1.65161537	     -7.50306371	    -18.21510211	      2.78120867	     -1.33352283	      7.44912088	    -10.06010412	      4.98288673	     40.13068266	     90.00000001	      0.00000000	      0.00000000	    -14.79182500	     -9.78816889	     -3.24063296	     49.89713527	     90.00000001	      0.00000000	      0.00000000
      6.02000000	      7.32422833	     -3.97871569	     -5.75968817	      0.51485507	      0.95219749	     -0.15056669	      6.90653090	     -9.45584735	    -15.85704965	     35.48588476	      5.36504382	      0.61934553	      6.46166279	      5.62876883	     -7.50299200	     -2.41439565	     -3.36410910	    -20.99387795	     22.91467445	      3.20961664	      0.39993652	     16.88710619	      1.24436007	     -7.50299200	    -18.40247765	      2.89753120	     -1.23555643	      7.49251603	     -9.98842268	      4.44383864	     39.85805236	     90.00000001	      0.00000000	      0.00000000	    -14.71939897	     -9.70361507	     -3.26643913	     49.77866375	     90.00000001	      0.00000000	      0.00000000
      6.03000000	      7.19108401	     -3.96877328	     -5.84837917	      0.51603047	      0.95193574	     -0.15039997	      7.36267237	     -9.39652020	    -15.91708561	     34.34390418	      5.60573368	      0.59941421	      6.53931534	      6.53565331	     -7.50294804	     -2.33896900	     -3.29296877	    -20.88404320	     22.91336697	      3.14370136	      0.39991370	     16.95662753	      1.06093788	     -7.50294804	    -18.33097079	      2.83624751	     -1.17176725	      7.45434813	     -9.97695102	      4.30867964	     39.73078328	     90.00000001	      0.00000000	      0.00000000	    -14.70226404	     -9.64230105	     -3.24414714	     49.75262775	     90.00000001	      0.00000000	      0.00000000
      6.04000000	      7.06588693	     -3.89761008	     -5.97321982	      0.51718356	      0.95162006	     -0.15004858	      7.86261082	     -9.37976411	    -16.01768960	     33.28340154	      5.79201722	      0.58090494	      6.57600449	      7.15085802	     -7.50292528	     -2.27440803	     -3.20552213	    -20.85473500	     22.93618156	      3.15275573	      0.40031189	     17.03970386	      0.94670358	     -7.50292528	    -18.26724808	      2.68055190	     -1.08003862	      7.41160594	    -10.01032012	      4.23637773	     39.63243279	     90.00000001	      0.00000000	      0.00000000	    -14.68489599	     -9.64562243	     -3.25081855	     49.72495383	     90.00000001	      0.00000000	      0.00000000
      6.05000000	      6.95491634	     -3.83223092	     -6.09130080	      0.51847090	      0.95126844	     -0.14975462	      8.37384254	     -9.42079404	    -16.23083748	     32.36965076	      6.04601931	      0.56495698	      6.60209977	      7.58937284	     -7.50291544	     -2.26982095	     -3.15124894	    -20.95492521	     22.90899551	      3.21859139	      0.39983740	     17.15147731	      0.82853187	     -7.50291544	    -18.20195251	      2.55538833	     -0.99330134	      7.34753497	    -10.05181436	      4.19549395	     39.52098184	     90.00000001	      0.00000000	      0.00000000	    -14.67313253	     -9.61044235	     -3.24778506	     49.69213676	     90.00000001	      0.00000000	      0.00000000
      6.06000000	      7.02444826	     -4.14353677	     -6.04906354	      0.51975142	      0.95146537	     -0.14947802	      8.31950718	     -8.90562180	    -16.83437940	     30.77742513	      5.98355053	      0.53716740	      6.65977886	     10.43077386	     -7.50282836	     -2.41214241	     -3.56475264	    -20.71703763	     23.10198175	      3.36614095	      0.40320565	     17.22898023	      0.35000608	     -7.50282836	    -18.40184659	      2.85010871	     -0.95098673	      7.41528293	    -10.00986287	      3.75918820	     39.33591454	     90.00000001	      0.00000000	      0.00000000	    -14.52620910	     -9.50720714	     -3.27051166	     49.37434869	     90.00000001	      0.00000000	      0.00000000
      6.07000000	      6.86613095	     -4.04418797	     -6.14012225	      0.52087003	      0.95099402	     -0.14931400	      8.82814528	     -8.99032023	    -16.97891032	     29.78718587	      6.33288666	      0.51988447	      6.53057964	     11.54147959	     -7.50278454	     -2.24979628	     -3.40648745	    -20.63602203	     23.18762336	      3.27868742	      0.40470037	     17.32445565	      0.24583034	     -7.50278454	    -18.31224042	      2.72616796	     -0.90020660	      7.40238316	    -10.05612436	      3.71561882	     39.28571380	     90.00000001	      0.00000000	      0.00000000	    -14.48301087	     -9.46178696	     -3.24346595	     49.33370917	     90.00000001	      0.00000000	      0.00000000
      6.08000000	      6.72780205	     -3.97415245	     -6.24323243	      0.52201760	      0.95055345	     -0.14889408	      9.28794865	     -8.96378614	    -17.21394899	     28.76570597	      6.55429627	      0.50205628	      6.36145993	     12.53344264	     -7.50275624	     -2.13006757	     -3.33433898	    -20.59992929	     23.27672567	      3.25073187	      0.40625550	     17.42484760	      0.13343369	     -7.50275624	    -18.24179403	      2.59930054	     -0.84156335	      7.39176404	    -10.09195180	      3.66859051	     39.24275788	     90.00000001	      0.00000000	      0.00000000	    -14.41786588	     -9.45392979	     -3.24258999	     49.24643235	     90.00000001	      0.00000000	      0.00000000
      6.09000000	      6.63367647	     -3.96298957	     -6.31125590	      0.52327381	      0.95019581	     -0.14855586	      9.65062123	     -8.90025636	    -17.62577090	     27.77698348	      6.76992399	      0.48479982	      6.11279281	     13.79065974	     -7.50272563	     -2.06313273	     -3.35087443	    -20.58728516	     23.41169188	      3.26702252	      0.40861111	     17.55279180	     -0.02164609	     -7.50272563	    -18.21974030	      2.56166277	     -0.79206954	      7.38075375	    -10.12884908	      3.59811815	     39.19375431	     90.00000001	      0.00000000	      0.00000000	    -14.32637459	     -9.39111614	     -3.22953823	     49.10034457	     90.00000001	      0.00000000	      0.00000000
      6.10000000	      6.60015071	     -3.88780388	     -6.46672568	      0.52452610	      0.94978508	     -0.14803694	     10.15256572	     -8.93197549	    -18.00556284	     27.30712739	      6.97326258	      0.47659928	      6.09791496	     13.95498027	     -7.50272141	     -2.14671593	     -3.29509380	    -20.67855872	     23.40221331	      3.33351740	      0.40844567	     17.63016475	     -0.06426806	     -7.50272141	    -18.26062728	      2.42550011	     -0.71662181	      7.42672573	    -10.16136246	      3.59603894	     39.17950140	     90.00000001	      0.00000000	      0.00000000	    -14.29166566	     -9.36697302	     -3.22500286	     49.08842512	     90.00000001	      0.00000000	      0.00000000
      6.11000000	      6.54921440	     -3.99443956	     -6.31575446	      0.52618264	      0.94951691	     -0.14791925	     10.24861496	     -8.67488592	    -19.28482589	     26.16333047	      6.73672729	      0.45663626	      5.61999950	     17.14479389	     -7.50263000	     -2.08039857	     -3.47143013	    -20.48568819	     23.68270276	      3.35491342	      0.41334114	     17.83845088	     -0.23534415	     -7.50263000	    -18.24659101	      2.57907504	     -0.78165305	      7.31176082	    -10.20353986	      3.41977994	     39.18634123	     90.00000001	      0.00000000	      0.00000000	    -14.15930415	     -9.29769681	     -3.21500024	     48.81973021	     90.00000001	      0.00000000	      0.00000000
      6.12000000	      6.44020272	     -3.81819424	     -6.40475608	      0.52746346	      0.94898320	     -0.14752975	     10.67792053	     -8.81847048	    -19.59245298	     25.55223202	      7.06946594	      0.44597058	      5.24428453	     17.76838271	     -7.50260544	     -1.98438817	     -3.28049395	    -20.48771731	     23.77448948	      3.32227608	      0.41494312	     17.95694161	     -0.26625030	     -7.50260544	    -18.19229262	      2.36405404	     -0.75357478	      7.30946261	    -10.25605608	      3.43151044	     39.16558246	     90.00000001	      0.00000000	      0.00000000	    -14.06894687	     -9.28121454	     -3.19097621	     48.75768219	     90.00000001	      0.00000000	      0.00000000
      6.13000000	      6.36793627	     -3.72476784	     -6.43627408	      0.52895172	      0.94851810	     -0.14716121	     10.99492732	     -8.84075692	    -20.12860743	     24.97667483	      7.27231559	      0.43592521	      4.75305053	     18.51980204	     -7.50258204	     -1.94454835	     -3.19547479	    -20.46684278	     23.89496027	      3.30549642	      0.41704573	     18.09266398	     -0.33364399	     -7.50258204	    -18.15581734	      2.26412159	     -0.74527958	      7.29060980	    -10.30806950	      3.41820708	     39.14975335	     90.00000001	      0.00000000	      0.00000000	    -13.96391486	     -9.25113207	     -3.16317959	     48.61740907	     90.00000001	      0.00000000	      0.00000000
      6.14000000	      6.37154696	     -3.71738692	     -6.37575049	      0.53063864	      0.94814903	     -0.14687036	     11.19116849	     -8.78012108	    -21.08806526	     24.57018292	      7.28153240	      0.42883059	      4.29861085	     19.71612054	     -7.50253145	     -2.01419096	     -3.23339953	    -20.39787456	     24.01736671	      3.34682790	      0.41918213	     18.25576129	     -0.39409858	     -7.50253145	    -18.19515495	      2.28074769	     -0.78898070	      7.25365391	    -10.35770422	      3.37547798	     39.16249459	     90.00000001	      0.00000000	      0.00000000	    -13.85254904	     -9.20916972	     -3.12226888	     48.46123502	     90.00000001	      0.00000000	      0.00000000
      6.15000000	      6.34796227	     -3.58703978	     -6.38445464	      0.53233035	      0.94768525	     -0.14648920	     11.44184582	     -8.82615475	    -21.65128273	     24.26457747	      7.40291686	      0.42349677	      3.90110132	     20.20267859	     -7.50250510	     -2.06767257	     -3.10653382	    -20.36948179	     24.07717536	      3.35494832	      0.42022598	     18.39071101	     -0.41084644	     -7.50250510	    -18.18789444	      2.15394903	     -0.81545505	      7.23413128	    -10.41044161	      3.36410750	     39.15819162	     90.00000001	      0.00000000	      0.00000000	    -13.77401482	     -9.20392608	     -3.09547887	     48.36989159	     90.00000001	      0.00000000	      0.00000000
